<?xml version="1.0" encoding="UTF-8" standalone="no"?>
<svg width="1024px" height="1024px" viewBox="0 0 1024 1024" version="1.1" xmlns="http://www.w3.org/2000/svg" xmlns:xlink="http://www.w3.org/1999/xlink">
    <!-- Generator: Sketch 46.1 (44463) - http://www.bohemiancoding.com/sketch -->
    <title>code</title>
    <desc>Created with Sketch.</desc>
    <defs></defs>
    <g id="小站" stroke="none" stroke-width="1" fill="none" fill-rule="evenodd" opacity="0.779734142">
        <g id="code" fill="#000000">
            <path d="M1018.64495,531.297637 C1027.27952,512.687401 1023.24618,489.87879 1007.20328,475.433694 L802.095304,290.753647 L802.095304,290.753647 C782.394782,273.015217 752.044514,274.605807 734.306083,294.306329 L734.306083,294.306329 L734.306083,294.306329 C716.567653,314.006852 718.158243,344.35712 737.858766,362.09555 L904.138417,511.81442 L736.858766,662.433694 C717.158243,680.172125 715.567653,710.522392 733.306083,730.222915 C751.044514,749.923438 781.394782,751.514028 801.095304,733.775598 L1006.20328,549.09555 C1011.84552,544.015251 1016.00229,537.90046 1018.64495,531.297643 Z M119.947,511.390231 L286.22665,361.671361 C305.927173,343.932931 307.517763,313.582663 289.779333,293.88214 L289.779333,293.88214 L289.779333,293.88214 C272.040903,274.181618 241.690635,272.591027 221.990112,290.329458 L221.990112,290.329458 L16.8821402,475.009505 C0.839236202,489.454601 -3.19410198,512.263212 5.44046645,530.873448 C8.08312579,537.476271 12.2398959,543.591061 17.8821402,548.671361 L222.990112,733.351408 C242.690635,751.089839 273.040903,749.499248 290.779333,729.798726 C308.517763,710.098203 306.927173,679.747935 287.22665,662.009505 L119.947,511.390231 Z" id="Combined-Shape"></path>
        </g>
    </g>
</svg>